<?xml version="1.0" encoding="UTF-8"?>
<svg id="a" data-name="Layer 1" xmlns="http://www.w3.org/2000/svg" viewBox="0 0 83.9984 96">
  <g id="b" data-name="SvgjsG1729">
    <path
      d="M83.4956,23.6321L42.4976,.1321c-.308-.1762-.6863-.1762-.9944,0L.5027,23.6321c-.3105,.1787-.5027,.5089-.5027,.8674v46.9999c0,.3586,.1922,.6888,.5027,.8674l40.9993,23.5c.308,.1774,.6863,.1774,.9944,0l40.9993-23.5c.3105-.1774,.5027-.5089,.5027-.8674V24.4996c.0012-.3586-.191-.69-.5027-.8675ZM41.9998,2.1517l7.7516,4.4432L20.5243,23.3463l-7.7516-4.4432L41.9998,2.1517Zm0,22.3812l20.4762,11.7364v23.4605l-20.4762,11.7364-20.4762-11.7364v-23.4605l20.4762-11.7364Zm-20.4762,9.4323v-8.8864l19.4757-11.1635v8.8864l-19.4757,11.1635Zm-10.7618-13.9088l7.7516,4.4432-7.7516,4.4432-7.7516-4.4432,7.7516-4.4432Zm8.762,6.1682V59.7298l-7.7627,4.4481V30.674l7.7627-4.4494Zm-17.5239,0l7.7614,4.4494v33.504l-7.7614-4.4481V26.2246Zm29.2382,61.4533L1.9998,70.9204v-8.8864l29.2382,16.7575v8.8864Zm-18.4666-21.7749l7.7516-4.4432,19.4658,11.1573-7.7516,4.4432-19.4658-11.1573Zm28.2278,27.3702l-7.7614-4.4494v-8.8852l7.7614,4.4494v8.8852Zm1.0005-10.6176l-7.7516-4.4432,29.2271-16.7514,7.7516,4.4432-29.2271,16.7514Zm30.2375-6.1411l-29.2382,16.7588v-8.8864l29.2382-16.7588v8.8864Zm0-12.3365l-7.7627-4.4481v-22.3146l7.7627,4.4494v22.3134Zm0-24.6176l-29.2382-16.7588V13.9152l29.2382,16.7588v8.8864ZM44.0095,12.1902l7.7516-4.4432,29.2271,16.7526-7.7516,4.4432L44.0095,12.1902Zm37.9891,58.7302l-7.7614,4.4481V41.8646l7.7614-4.4494v33.5052Zm0-35.8094l-7.7614,4.4494v-8.8852l7.7614-4.4494v8.8852Z"
      style="fill: #1afed8;" />
  </g>
</svg>